<svg width="173" height="46" fill="none" xmlns="http://www.w3.org/2000/svg"><rect width="172.484" height="46" rx="23" fill="#D9D9D9"/><path d="M74.493 29V17.048H68.86l-.072 2.844c-.048 1.788-.168 3.27-.36 4.446-.18 1.176-.438 2.106-.774 2.79-.324.684-.726 1.17-1.206 1.458-.48.276-1.038.414-1.674.414v-.828c.468 0 .888-.126 1.26-.378.372-.264.684-.708.936-1.332.264-.624.474-1.482.63-2.574.156-1.104.258-2.496.306-4.176l.108-3.492h7.398V29h-.918zm7.895.18c-.66 0-1.272-.126-1.836-.378a4.44 4.44 0 01-1.44-1.044 5.081 5.081 0 01-.953-1.566 5.083 5.083 0 01-.343-1.854c0-.66.114-1.278.343-1.854a4.86 4.86 0 01.953-1.548 4.52 4.52 0 011.459-1.062 4.235 4.235 0 011.817-.396c.648 0 1.248.132 1.8.396a4.516 4.516 0 011.459 1.062c.42.444.743.96.971 1.548.229.576.343 1.194.343 1.854 0 .648-.114 1.266-.343 1.854a4.909 4.909 0 01-.971 1.566 4.387 4.387 0 01-1.459 1.044 4.282 4.282 0 01-1.8.378zm-3.672-4.806c0 .732.163 1.404.487 2.016.335.6.78 1.08 1.331 1.44a3.29 3.29 0 001.837.54 3.29 3.29 0 001.836-.54 3.95 3.95 0 001.332-1.476 4.223 4.223 0 00.504-2.034 4.12 4.12 0 00-.505-2.016 3.81 3.81 0 00-1.331-1.458 3.185 3.185 0 00-1.819-.558c-.672 0-1.284.186-1.836.558a4.162 4.162 0 00-1.332 1.476 4.203 4.203 0 00-.504 2.052zM89.117 29v-9.36h5.419v.81h-4.518V29h-.9zm11.132.18c-.66 0-1.272-.126-1.836-.378a4.44 4.44 0 01-1.44-1.044 5.081 5.081 0 01-.954-1.566 5.083 5.083 0 01-.342-1.854c0-.66.114-1.278.342-1.854a4.86 4.86 0 01.954-1.548c.42-.456.906-.81 1.458-1.062a4.235 4.235 0 011.818-.396c.648 0 1.248.132 1.8.396a4.516 4.516 0 011.458 1.062c.42.444.744.96.972 1.548.228.576.342 1.194.342 1.854 0 .648-.114 1.266-.342 1.854a4.909 4.909 0 01-.972 1.566 4.387 4.387 0 01-1.458 1.044 4.282 4.282 0 01-1.8.378zm-3.672-4.806c0 .732.162 1.404.486 2.016.336.6.78 1.08 1.332 1.44a3.29 3.29 0 001.836.54 3.29 3.29 0 001.836-.54 3.95 3.95 0 001.332-1.476 4.223 4.223 0 00.504-2.034 4.12 4.12 0 00-.504-2.016 3.81 3.81 0 00-1.332-1.458 3.185 3.185 0 00-1.818-.558c-.672 0-1.284.186-1.836.558a4.162 4.162 0 00-1.332 1.476c-.336.612-.504 1.296-.504 2.052z" fill="#000"/></svg>