<svg width="27" height="26" fill="none" xmlns="http://www.w3.org/2000/svg"><g clip-path="url(#clip0_3_11515)"><ellipse cx="13.318" cy="13" rx="12.278" ry="13" fill="#424242"/><path d="M13.318 17.025a6.592 6.592 0 00-6.555 7.207A12.921 12.921 0 0013.318 26c2.34 0 4.586-.615 6.554-1.768a6.592 6.592 0 00-6.554-7.207z" fill="#fff"/><path d="M22.51 3.808A12.915 12.915 0 0013.318 0a12.915 12.915 0 00-9.193 3.808A12.915 12.915 0 00.318 13c0 3.472 1.352 6.737 3.807 9.192.347.347.713.674 1.097.98.17-3.192 2.196-5.899 5.015-7.061a5.657 5.657 0 01-2.576-4.743 5.663 5.663 0 015.657-5.657 5.663 5.663 0 015.657 5.657 5.657 5.657 0 01-2.577 4.743c2.82 1.162 4.845 3.87 5.015 7.061.384-.306.75-.633 1.097-.98A12.915 12.915 0 0026.318 13c0-3.473-1.353-6.737-3.808-9.192z" fill="#fff"/><path d="M17.45 11.368a4.138 4.138 0 00-4.134-4.133 4.138 4.138 0 00-4.133 4.133 4.138 4.138 0 004.133 4.134 4.138 4.138 0 004.134-4.134z" fill="#fff"/></g><defs><clipPath id="clip0_3_11515"><path fill="#fff" transform="translate(.318)" d="M0 0h26v26H0z"/></clipPath></defs></svg>